<svg xmlns="http://www.w3.org/2000/svg" viewBox="0 0 48 47" width="48" height="47">
	<defs>
		<clipPath clipPathUnits="userSpaceOnUse" id="cp1">
			<path d="M20.69 21.66C20.69 20.14 21.93 18.91 23.45 18.91C24.97 18.91 26.21 20.14 26.21 21.66C26.21 23.18 24.97 24.42 23.45 24.42C21.93 24.42 20.69 23.18 20.69 21.66ZM22.27 21.66C22.27 22.32 22.8 22.84 23.45 22.84C24.1 22.84 24.63 22.32 24.63 21.66C24.63 21.01 24.1 20.48 23.45 20.48C22.8 20.48 22.27 21.01 22.27 21.66ZM28.96 28.55L28.96 29.14C28.96 29.58 28.61 29.93 28.18 29.93L18.73 29.93C18.29 29.93 17.94 29.58 17.94 29.14L17.94 28.55C17.94 26.72 21.61 25.8 23.45 25.8C25.29 25.8 28.96 26.72 28.96 28.55ZM27.12 28.36C26.46 27.9 24.86 27.37 23.45 27.37C22.04 27.37 20.44 27.9 19.78 28.36L27.12 28.36ZM33.69 28.55L33.69 29.14C33.69 29.58 33.33 29.93 32.9 29.93L30.54 29.93L30.54 28.55C30.54 27.39 29.91 26.51 28.99 25.84C30.93 26.06 33.69 26.96 33.69 28.55ZM26.99 24.14C27.49 23.44 27.78 22.58 27.78 21.66C27.78 20.74 27.49 19.88 26.99 19.18C27.36 19.01 27.75 18.91 28.18 18.91C29.7 18.91 30.93 20.14 30.93 21.66C30.93 23.18 29.7 24.42 28.18 24.42C27.75 24.42 27.36 24.32 26.99 24.14Z" />
		</clipPath>
	</defs>
	<style>
		tspan { white-space:pre }
		.shp0 { opacity: 0.204;fill: #130242 } 
		.shp1 { fill: #130242 } 
	</style>
	<g id="Group 2">
		<path id="Oval" class="shp0" d="M24.5 47C37.48 47 48 36.48 48 23.5C48 10.52 37.48 0 24.5 0C11.52 0 1 10.52 1 23.5C1 36.48 11.52 47 24.5 47Z" />
		<path id="icon/social/people_outline_24px" fill-rule="evenodd" class="shp1" d="M20.69 21.66C20.69 20.14 21.93 18.91 23.45 18.91C24.97 18.91 26.21 20.14 26.21 21.66C26.21 23.18 24.97 24.42 23.45 24.42C21.93 24.42 20.69 23.18 20.69 21.66ZM22.27 21.66C22.27 22.32 22.8 22.84 23.45 22.84C24.1 22.84 24.63 22.32 24.63 21.66C24.63 21.01 24.1 20.48 23.45 20.48C22.8 20.48 22.27 21.01 22.27 21.66ZM28.96 28.55L28.96 29.14C28.96 29.58 28.61 29.93 28.18 29.93L18.73 29.93C18.29 29.93 17.94 29.58 17.94 29.14L17.94 28.55C17.94 26.72 21.61 25.8 23.45 25.8C25.29 25.8 28.96 26.72 28.96 28.55ZM27.12 28.36C26.46 27.9 24.86 27.37 23.45 27.37C22.04 27.37 20.44 27.9 19.78 28.36L27.12 28.36ZM33.69 28.55L33.69 29.14C33.69 29.58 33.33 29.93 32.9 29.93L30.54 29.93L30.54 28.55C30.54 27.39 29.91 26.51 28.99 25.84C30.93 26.06 33.69 26.96 33.69 28.55ZM26.99 24.14C27.49 23.44 27.78 22.58 27.78 21.66C27.78 20.74 27.49 19.88 26.99 19.18C27.36 19.01 27.75 18.91 28.18 18.91C29.7 18.91 30.93 20.14 30.93 21.66C30.93 23.18 29.7 24.42 28.18 24.42C27.75 24.42 27.36 24.32 26.99 24.14Z" />
		<g id="Mask by icon/social/people_outline_24px" clip-path="url(#cp1)">
		</g>
	</g>
</svg>