<svg xmlns="http://www.w3.org/2000/svg" viewBox="0 0 47 47" width="47" height="47"><defs><clipPath clipPathUnits="userSpaceOnUse" id="cp1"><path d="M27.72 20.56L23.76 24.53L22.77 23.54L26.73 19.58C26.86 19.45 27.04 19.37 27.22 19.37C27.41 19.37 27.59 19.45 27.72 19.58C27.99 19.85 27.99 20.3 27.72 20.56ZM31.68 19.58L31.69 19.58C31.96 19.85 31.96 20.3 31.69 20.57L24.25 28C23.97 28.28 23.53 28.28 23.26 28L20.32 25.07C20.05 24.79 20.05 24.35 20.32 24.08C20.45 23.94 20.63 23.87 20.82 23.87C21 23.87 21.18 23.94 21.31 24.08L23.76 26.51L30.7 19.57C30.97 19.3 31.42 19.3 31.68 19.58ZM16.35 25.07C16.08 24.8 16.08 24.35 16.35 24.08C16.48 23.94 16.66 23.87 16.85 23.87C17.03 23.87 17.21 23.94 17.34 24.08L20.77 27.52L20.28 28.01C20 28.29 19.56 28.29 19.29 28.01L16.35 25.07Z" /></clipPath></defs><style>tspan { white-space:pre }.shp0 { opacity: 0.204;fill: #03d3e2 } .shp1 { fill: #00a0ab } </style><g id="Group 2"><path id="Oval" class="shp0" d="M23.5 47C36.48 47 47 36.48 47 23.5C47 10.52 36.48 0 23.5 0C10.52 0 0 10.52 0 23.5C0 36.48 10.52 47 23.5 47Z" /><path id="icon/action/done_all_24px" fill-rule="evenodd" class="shp1" d="M27.72 20.56L23.76 24.53L22.77 23.54L26.73 19.58C26.86 19.45 27.04 19.37 27.22 19.37C27.41 19.37 27.59 19.45 27.72 19.58C27.99 19.85 27.99 20.3 27.72 20.56ZM31.68 19.58L31.69 19.58C31.96 19.85 31.96 20.3 31.69 20.57L24.25 28C23.97 28.28 23.53 28.28 23.26 28L20.32 25.07C20.05 24.79 20.05 24.35 20.32 24.08C20.45 23.94 20.63 23.87 20.82 23.87C21 23.87 21.18 23.94 21.31 24.08L23.76 26.51L30.7 19.57C30.97 19.3 31.42 19.3 31.68 19.58ZM16.35 25.07C16.08 24.8 16.08 24.35 16.35 24.08C16.48 23.94 16.66 23.87 16.85 23.87C17.03 23.87 17.21 23.94 17.34 24.08L20.77 27.52L20.28 28.01C20 28.29 19.56 28.29 19.29 28.01L16.35 25.07Z" /><g id="Mask by icon/action/done_all_24px" clip-path="url(#cp1)"></g></g></svg>