<svg xmlns="http://www.w3.org/2000/svg" viewBox="0 0 47 47" width="47" height="47">
	<defs>
		<clipPath clipPathUnits="userSpaceOnUse" id="cp1">
			<path d="M22.3 19.15L22.3 17.57L25.45 17.57L25.45 19.15L22.3 19.15ZM18.36 20.72L29.39 20.72C29.82 20.72 30.17 21.08 30.17 21.51L30.17 28.6C30.17 29.03 29.82 29.39 29.39 29.39L18.36 29.39C17.93 29.39 17.57 29.03 17.57 28.6L17.57 21.51C17.57 21.08 17.93 20.72 18.36 20.72ZM27.02 19.15L27.02 17.57C27.02 16.7 26.32 16 25.45 16L22.3 16C21.43 16 20.72 16.7 20.72 17.57L20.72 19.15L17.57 19.15C16.7 19.15 16.01 19.85 16.01 20.72L16 29.39C16 30.26 16.7 30.96 17.57 30.96L30.17 30.96C31.05 30.96 31.75 30.26 31.75 29.39L31.75 20.72C31.75 19.85 31.05 19.15 30.17 19.15L27.02 19.15Z" />
		</clipPath>
	</defs>
	<style>
		tspan { white-space:pre }
		.shp0 { fill: #fb1488 } 
		.shp1 { fill: #ffffff } 
	</style>
	<g id="Group 2">
		<path id="Oval" class="shp0" d="M23.5 47C36.48 47 47 36.48 47 23.5C47 10.52 36.48 0 23.5 0C10.52 0 0 10.52 0 23.5C0 36.48 10.52 47 23.5 47Z" />
		<path id="icon/action/work_outline_24px" fill-rule="evenodd" class="shp1" d="M22.3 19.15L22.3 17.57L25.45 17.57L25.45 19.15L22.3 19.15ZM18.36 20.72L29.39 20.72C29.82 20.72 30.17 21.08 30.17 21.51L30.17 28.6C30.17 29.03 29.82 29.39 29.39 29.39L18.36 29.39C17.93 29.39 17.57 29.03 17.57 28.6L17.57 21.51C17.57 21.08 17.93 20.72 18.36 20.72ZM27.02 19.15L27.02 17.57C27.02 16.7 26.32 16 25.45 16L22.3 16C21.43 16 20.72 16.7 20.72 17.57L20.72 19.15L17.57 19.15C16.7 19.15 16.01 19.85 16.01 20.72L16 29.39C16 30.26 16.7 30.96 17.57 30.96L30.17 30.96C31.05 30.96 31.75 30.26 31.75 29.39L31.75 20.72C31.75 19.85 31.05 19.15 30.17 19.15L27.02 19.15Z" />
		<g id="Mask by icon/action/work_outline_24px" clip-path="url(#cp1)">
		</g>
	</g>
</svg>