<svg xmlns="http://www.w3.org/2000/svg" viewBox="0 0 47 47" width="47" height="47"><defs><clipPath clipPathUnits="userSpaceOnUse" id="cp1"><path d="M15.76 27.96L25.3 18.42L28.58 21.7L19.03 31.25C18.95 31.33 18.84 31.38 18.72 31.38L16.06 31.38C15.82 31.38 15.62 31.18 15.62 30.94L15.62 28.28C15.62 28.16 15.67 28.05 15.76 27.96ZM31.12 19.16L29.52 20.76L26.24 17.48L27.84 15.88C28 15.72 28.23 15.62 28.46 15.62C28.69 15.62 28.91 15.72 29.07 15.88L31.12 17.93C31.46 18.27 31.46 18.82 31.12 19.16ZM25.3 20.89L17.37 28.82L17.37 29.62L18.18 29.62L26.11 21.7L25.3 20.89Z" /></clipPath></defs><style>tspan { white-space:pre }.shp0 { fill: #7796fe } .shp1 { fill: #ffffff } </style><g id="Group 2"><path id="Oval" class="shp0" d="M23.5 47C36.48 47 47 36.48 47 23.5C47 10.52 36.48 0 23.5 0C10.52 0 0 10.52 0 23.5C0 36.48 10.52 47 23.5 47Z" /><path id="icon/image/edit_24px" fill-rule="evenodd" class="shp1" d="M15.76 27.96L25.3 18.42L28.58 21.7L19.03 31.25C18.95 31.33 18.84 31.38 18.72 31.38L16.06 31.38C15.82 31.38 15.62 31.18 15.62 30.94L15.62 28.28C15.62 28.16 15.67 28.05 15.76 27.96ZM31.12 19.16L29.52 20.76L26.24 17.48L27.84 15.88C28 15.72 28.23 15.62 28.46 15.62C28.69 15.62 28.91 15.72 29.07 15.88L31.12 17.93C31.46 18.27 31.46 18.82 31.12 19.16ZM25.3 20.89L17.37 28.82L17.37 29.62L18.18 29.62L26.11 21.7L25.3 20.89Z" /><g id="Mask by icon/image/edit_24px" clip-path="url(#cp1)"></g></g></svg>